<?xml version="1.0" encoding="UTF-8"?>
<svg id="Layer_1" data-name="Layer 1" xmlns="http://www.w3.org/2000/svg" viewBox="0 0 1051.51 488.77">
  <defs>
    <style>
      .cls-1 {
        fill: #fd6421;
      }

      .cls-1, .cls-2, .cls-3, .cls-4 {
        stroke-width: 0px;
      }

      .cls-2 {
        fill: #0068fd;
      }

      .cls-3 {
        fill: #272a35;
      }

      .cls-4 {
        fill: #4d39c3;
      }
    </style>
  </defs>
  <g id="Yoizen_primario" data-name="Yoizen primario">
    <path class="cls-3" d="M179.57,193.2v120.74c0,.33-.04.65-.13.96v3.8c0,26.07-21.14,47.22-47.23,47.22h-28.73c-2.64,0-4.77-2.13-4.77-4.77v-19.08c0-2.63,2.13-4.77,4.77-4.77h28.73c10.27,0,18.6-8.33,18.6-18.59v-1.52c-12.23,0-25.58.02-32.09.02-13.41,0-24.13-2.07-32.17-10.01-8.03-7.94-12.05-18.79-12.05-32.53v-81.47c0-.92.36-1.68,1.07-2.29.53-.46,1.22-.69,1.92-.69h22.85c.83,0,1.53.29,2.12.87.58.57.87,1.27.87,2.11v75.5c0,7.61,2.15,13.79,6.46,18.5,4.3,4.72,10.01,5.22,17.14,5.22,5.75,0,17.76-.26,22.18-.36.92-.02,1.66-.78,1.66-1.71v-97.16c0-.93.36-1.69,1.07-2.3.52-.45,1.21-.68,1.9-.68h22.85c.83,0,1.53.29,2.12.87.58.57.87,1.27.87,2.11Z"/>
    <g>
      <path class="cls-3" d="M358.01,319.72c-.59-.59-.88-1.3-.88-2.15v-123.39c0-.84.29-1.56.88-2.15.59-.59,1.3-.88,2.15-.88h23.26c.84,0,1.56.3,2.15.88.59.59.88,1.31.88,2.15v123.39c0,.85-.3,1.56-.88,2.15-.59.59-1.31.88-2.15.88h-23.26c-.85,0-1.56-.29-2.15-.88Z"/>
      <path class="cls-3" d="M417.62,319.72c-.59-.59-.88-1.3-.88-2.15v-21.49c0-1.52.42-2.69,1.26-3.54l62.2-73.07c.84-1.01.59-1.52-.76-1.52h-58.41c-.85,0-1.56-.29-2.15-.88-.59-.59-.88-1.3-.88-2.15v-20.48c0-.84.29-1.56.88-2.15.59-.59,1.3-.88,2.15-.88h92.04c.84,0,1.56.3,2.15.88.59.59.88,1.31.88,2.15v21.49c0,1.35-.51,2.53-1.52,3.54l-63.46,73.07c-.68,1.01-.42,1.52.76,1.52h61.95c.84,0,1.56.3,2.15.88.59.59.88,1.31.88,2.15v20.48c0,.85-.3,1.56-.88,2.15-.59.59-1.31.88-2.15.88h-94.06c-.85,0-1.56-.29-2.15-.88Z"/>
      <path class="cls-3" d="M789.3,234.63v82.93c0,.94-.36,1.71-1.08,2.33-.54.46-1.24.7-1.95.7h-23.26c-.84,0-1.56-.29-2.15-.89-.6-.59-.89-1.3-.89-2.15v-76.87c0-7.75-2.19-14.03-6.57-18.83-4.38-4.81-10.2-5.32-17.45-5.32-5.86,0-18.09.26-22.58.36-.95.02-1.7.79-1.7,1.74v98.92c0,.94-.36,1.72-1.09,2.34-.54.46-1.23.7-1.94.7h-23.27c-.84,0-1.56-.29-2.15-.89-.6-.59-.88-1.3-.88-2.15v-122.92c0-.97.36-1.95,1.11-2.58.54-.45,1.18-.67,1.92-.67,0,0,44.92-.07,58.91-.07s24.57,2.1,32.75,10.19c8.17,8.09,12.26,19.13,12.26,33.12Z"/>
      <path class="cls-3" d="M267.46,218.56c20.59,0,37.33,16.75,37.33,37.33s-16.75,37.33-37.33,37.33-37.33-16.75-37.33-37.33,16.75-37.33,37.33-37.33M267.46,189.17c-36.85,0-66.73,29.87-66.73,66.73s29.87,66.73,66.73,66.73,66.73-29.87,66.73-66.73-29.87-66.73-66.73-66.73h0Z"/>
      <path class="cls-3" d="M619.25,292.11c-12.76,7.77-33.34,7.53-45.08-1.97-5.89-4.63-10.17-11.56-12.71-18.92l100.17-12.3c1.8-.22,3.08-1.85,2.87-3.65-5.64-49.38-42.03-76.64-91.53-61.35-34.19,10.94-49.01,48.67-38.99,80.68,18.84,57.47,93.65,63.24,122.64,12.14.79-1.39.34-3.15-1-4.01l-15.53-9.91c-1.46-.93-3.42-.45-4.24,1.08-3.93,7.39-9.69,14.05-16.62,18.21ZM566.17,233.53c6.43-11.29,19.65-16.15,32.38-17.21,17.1-2.06,31.35,6.99,37.33,23.08l-75.21,9.24c1.08-5.43,2.91-10.68,5.51-15.1Z"/>
    </g>
    <g>
      <path class="cls-1" d="M919.53,161.52s-3.67,4.46-7.7,9.46l56.73,65.87,9.99-114.33c-22.92,9.09-43.17,22.54-59.02,39Z"/>
      <path class="cls-2" d="M832.22,328.89l38.24-46.73c-43.53-25.78-53.72-56.38-51.89-93.69,1.23-25.07,16.03-48.59,34.22-66.04l49.39,58.42c-9.89,15.48-15.87,33.05-16.79,51.86-1.01,20.6,4.17,40.32,14.14,57.88l-66.75,38.94c-.42.24-.86-.28-.55-.65Z"/>
      <path class="cls-4" d="M966.38,256.17l-66.86,34.43c-9.97-17.57-15.15-37.28-14.14-57.88.92-18.81,6.9-36.39,16.79-51.86l64.04,75,.16.31Z"/>
    </g>
  </g>
</svg>