<?xml version="1.0" encoding="UTF-8"?>
<svg id="Layer_1" data-name="Layer 1" xmlns="http://www.w3.org/2000/svg" viewBox="0 0 1051.51 488.77">
  <defs>
    <style>
      .cls-1 {
        fill: #000;
        stroke-width: 0px;
      }
    </style>
  </defs>
  <path class="cls-1" d="M178.94,193.48v120.61c0,.33-.04.65-.13.96v3.8c0,26.05-21.12,47.17-47.17,47.17h-28.7c-2.64,0-4.77-2.13-4.77-4.77v-19.06c0-2.63,2.13-4.77,4.77-4.77h28.7c10.26,0,18.58-8.32,18.58-18.57v-1.52c-12.22,0-25.55.02-32.06.02-13.4,0-24.11-2.07-32.13-10-8.02-7.94-12.03-18.77-12.03-32.49v-81.38c0-.92.36-1.68,1.06-2.29.53-.46,1.22-.69,1.91-.69h22.82c.83,0,1.53.29,2.11.87.58.57.87,1.27.87,2.1v75.42c0,7.6,2.14,13.77,6.45,18.48,4.3,4.72,10,5.22,17.12,5.22,5.74,0,17.74-.26,22.15-.36.92-.02,1.66-.78,1.66-1.71v-97.06c0-.93.36-1.68,1.07-2.3.52-.45,1.21-.68,1.9-.68h22.83c.83,0,1.53.29,2.11.87.58.57.87,1.27.87,2.1Z"/>
  <g>
    <path class="cls-1" d="M357.18,319.85c-.59-.59-.88-1.3-.88-2.15v-123.25c0-.84.29-1.55.88-2.15.59-.59,1.3-.88,2.15-.88h23.24c.84,0,1.55.3,2.15.88.59.59.88,1.31.88,2.15v123.25c0,.84-.3,1.56-.88,2.15-.59.59-1.31.88-2.15.88h-23.24c-.84,0-1.56-.29-2.15-.88Z"/>
    <path class="cls-1" d="M416.73,319.85c-.59-.59-.88-1.3-.88-2.15v-21.47c0-1.52.42-2.69,1.26-3.54l62.13-72.99c.84-1.01.59-1.52-.76-1.52h-58.34c-.84,0-1.56-.29-2.15-.88-.59-.59-.88-1.3-.88-2.15v-20.46c0-.84.29-1.55.88-2.15.59-.59,1.3-.88,2.15-.88h91.93c.84,0,1.55.3,2.15.88.59.59.88,1.31.88,2.15v21.47c0,1.35-.5,2.53-1.52,3.54l-63.39,72.99c-.67,1.01-.42,1.52.76,1.52h61.88c.84,0,1.55.3,2.15.88.59.59.88,1.31.88,2.15v20.46c0,.84-.3,1.56-.88,2.15-.59.59-1.31.88-2.15.88h-93.95c-.84,0-1.56-.29-2.15-.88Z"/>
    <path class="cls-1" d="M787.99,234.87v82.84c0,.94-.36,1.71-1.08,2.33-.54.46-1.24.7-1.95.7h-23.23c-.84,0-1.56-.29-2.15-.89-.6-.59-.89-1.3-.89-2.14v-76.78c0-7.74-2.19-14.02-6.57-18.81-4.38-4.8-10.19-5.31-17.43-5.31-5.85,0-18.07.26-22.55.36-.94.02-1.69.79-1.69,1.74v98.81c0,.94-.36,1.71-1.09,2.34-.54.46-1.23.7-1.94.7h-23.24c-.84,0-1.56-.29-2.14-.89-.6-.59-.88-1.3-.88-2.14v-122.78c0-.97.36-1.95,1.11-2.57.54-.45,1.18-.67,1.92-.67,0,0,44.87-.07,58.85-.07s24.54,2.1,32.71,10.18c8.16,8.08,12.25,19.11,12.25,33.08Z"/>
    <path class="cls-1" d="M266.73,218.81c20.56,0,37.29,16.73,37.29,37.29s-16.73,37.29-37.29,37.29-37.29-16.73-37.29-37.29,16.73-37.29,37.29-37.29M266.73,189.46c-36.81,0-66.65,29.84-66.65,66.65s29.84,66.65,66.65,66.65,66.65-29.84,66.65-66.65-29.84-66.65-66.65-66.65h0Z"/>
    <path class="cls-1" d="M618.14,292.28c-12.75,7.77-33.3,7.52-45.02-1.97-5.89-4.63-10.16-11.55-12.69-18.9l100.06-12.29c1.79-.22,3.07-1.85,2.87-3.65-5.63-49.32-41.99-76.55-91.43-61.28-34.15,10.93-48.95,48.61-38.95,80.59,18.82,57.41,93.55,63.17,122.5,12.12.79-1.38.34-3.15-1-4l-15.51-9.9c-1.46-.93-3.42-.44-4.23,1.08-3.92,7.38-9.68,14.03-16.6,18.19ZM565.11,233.76c6.42-11.27,19.63-16.13,32.34-17.19,17.08-2.05,31.31,6.98,37.28,23.06l-75.13,9.22c1.08-5.43,2.91-10.67,5.5-15.09Z"/>
  </g>
  <g>
    <path class="cls-1" d="M918.45,161.88s-3.67,4.46-7.7,9.47l56.77,65.92,10-114.42c-22.94,9.1-43.2,22.56-59.07,39.03Z"/>
    <path class="cls-1" d="M901.08,181.23l-49.43-58.47c-18.21,17.46-33.02,41.01-34.25,66.1-1.82,37.34,8.37,67.96,51.93,93.76l-38.27,46.77c-.31.38.14.89.56.65l66.8-38.98,66.91-34.46-.16-.31-64.1-75.06Z"/>
  </g>
</svg>