<?xml version="1.0" encoding="UTF-8"?>
<svg id="Layer_1" data-name="Layer 1" xmlns="http://www.w3.org/2000/svg" viewBox="0 0 1051.51 155.88">
  <defs>
    <style>
      .cls-1 {
        fill: #fd6421;
      }

      .cls-1, .cls-2, .cls-3, .cls-4 {
        stroke-width: 0px;
      }

      .cls-2 {
        fill: #0068fd;
      }

      .cls-3 {
        fill: #4d39c3;
      }

      .cls-4 {
        fill: #fff;
      }
    </style>
  </defs>
  <g>
    <path class="cls-4" d="M508.26,62.46l-1.3-4.23c-.06-.11-.13-.17-.22-.17h-10.62c-.09,0-.16.06-.22.17l-1.25,4.23c-.09.29-.27.43-.56.43h-5.48c-.17,0-.3-.05-.39-.15-.09-.1-.1-.25-.04-.45l9.32-29.18c.09-.29.27-.43.56-.43h6.78c.29,0,.47.14.56.43l9.32,29.18c.03.06.04.13.04.22,0,.26-.16.39-.47.39h-5.48c-.29,0-.47-.14-.56-.43ZM497.64,53.35h7.6c.17,0,.23-.09.17-.26l-3.88-12.82c-.03-.11-.07-.16-.13-.15-.06.01-.1.06-.13.15l-3.8,12.82c-.03.17.03.26.17.26Z"/>
    <path class="cls-4" d="M518.73,62.74c-.1-.1-.15-.22-.15-.37v-29.18c0-.14.05-.27.15-.37.1-.1.22-.15.37-.15h5.05c.14,0,.27.05.37.15.1.1.15.22.15.37v29.18c0,.14-.05.27-.15.37s-.22.15-.37.15h-5.05c-.14,0-.27-.05-.37-.15Z"/>
    <path class="cls-4" d="M528.7,52.6c-.1-.1-.15-.22-.15-.37v-4.19c0-.14.05-.27.15-.37.1-.1.22-.15.37-.15h14.12c.14,0,.27.05.37.15.1.1.15.22.15.37v4.19c0,.14-.05.27-.15.37-.1.1-.22.15-.37.15h-14.12c-.14,0-.27-.05-.37-.15Z"/>
    <path class="cls-4" d="M547.74,62.74c-.1-.1-.15-.22-.15-.37v-29.18c0-.14.05-.27.15-.37.1-.1.22-.15.37-.15h10.79c2.16,0,4.05.38,5.68,1.14,1.63.76,2.88,1.83,3.78,3.22.89,1.38,1.34,2.98,1.34,4.79v11.92c0,1.81-.45,3.41-1.34,4.79-.89,1.38-2.15,2.45-3.78,3.22-1.63.76-3.52,1.14-5.68,1.14h-10.79c-.14,0-.27-.05-.37-.15ZM553.89,57.67h5.22c1.32,0,2.4-.45,3.22-1.34.82-.89,1.24-2.09,1.27-3.58v-9.93c0-1.5-.41-2.69-1.23-3.58-.82-.89-1.92-1.34-3.3-1.34h-5.18c-.14,0-.22.07-.22.22v19.34c0,.14.07.22.22.22Z"/>
    <path class="cls-4" d="M587.39,41.01c.23.11.32.33.26.65l-.91,4.92c-.03.35-.23.45-.6.3-.43-.14-.94-.22-1.51-.22-.23,0-.55.03-.95.09-1.04.09-1.91.47-2.63,1.14-.72.68-1.08,1.58-1.08,2.7v11.79c0,.14-.05.27-.15.37-.1.1-.22.15-.37.15h-5.05c-.14,0-.27-.05-.37-.15-.1-.1-.15-.22-.15-.37v-21.15c0-.14.05-.27.15-.37.1-.1.22-.15.37-.15h5.05c.14,0,.27.05.37.15.1.1.15.22.15.37v1.64c0,.09.03.14.09.17.06.03.1.01.13-.04,1.18-1.73,2.76-2.59,4.75-2.59,1.04,0,1.86.2,2.46.6Z"/>
    <path class="cls-4" d="M591.25,37.23c-.65-.65-.97-1.46-.97-2.44s.32-1.83.95-2.46c.63-.63,1.45-.95,2.46-.95s1.83.32,2.46.95c.63.63.95,1.45.95,2.46s-.32,1.79-.97,2.44c-.65.65-1.46.97-2.44.97s-1.79-.32-2.44-.97ZM590.74,62.74c-.1-.1-.15-.22-.15-.37v-21.2c0-.14.05-.27.15-.37s.22-.15.37-.15h5.05c.14,0,.27.05.37.15s.15.22.15.37v21.2c0,.14-.05.27-.15.37s-.22.15-.37.15h-5.05c-.14,0-.27-.05-.37-.15Z"/>
    <path class="cls-4" d="M607.03,62.46l-6.91-21.2c-.03-.06-.04-.13-.04-.22,0-.26.16-.39.47-.39h5.57c.32,0,.52.14.6.43l3.54,13.08c.03.09.07.13.13.13s.1-.04.13-.13l3.54-13.08c.09-.29.29-.43.6-.43l5.57.09c.17,0,.3.05.39.15.09.1.1.25.04.45l-6.86,21.11c-.09.29-.27.43-.56.43h-5.66c-.29,0-.47-.14-.56-.43Z"/>
    <path class="cls-4" d="M642.26,53.18c-.03.35-.22.52-.56.52h-13.34c-.17,0-.23.07-.17.22.09.58.24,1.15.47,1.73.75,1.61,2.27,2.42,4.58,2.42,1.84-.03,3.3-.78,4.36-2.25.11-.17.24-.26.39-.26.09,0,.19.06.3.17l3.11,3.06c.14.14.22.27.22.39,0,.06-.06.17-.17.35-.95,1.18-2.17,2.09-3.67,2.74-1.5.65-3.14.97-4.92.97-2.48,0-4.57-.56-6.28-1.68-1.71-1.12-2.94-2.69-3.69-4.71-.6-1.44-.91-3.32-.91-5.66,0-1.58.22-2.98.65-4.19.66-2.04,1.82-3.67,3.48-4.88,1.65-1.21,3.62-1.81,5.89-1.81,2.88,0,5.19.83,6.93,2.5,1.74,1.67,2.8,3.9,3.17,6.69.17,1.1.23,2.32.17,3.67ZM628.45,48.13c-.12.37-.22.83-.3,1.38,0,.14.07.22.22.22h7.47c.17,0,.23-.07.17-.22-.14-.83-.22-1.24-.22-1.21-.26-.86-.71-1.53-1.36-2.01s-1.45-.71-2.4-.71c-1.81,0-3.01.85-3.58,2.55Z"/>
    <path class="cls-4" d="M663.15,42.47c1.41,1.41,2.12,3.32,2.12,5.74v14.16c0,.14-.05.27-.15.37-.1.1-.22.15-.37.15h-5.05c-.14,0-.27-.05-.37-.15-.1-.1-.15-.22-.15-.37v-12.91c0-1.15-.32-2.09-.97-2.81-.65-.72-1.5-1.08-2.57-1.08s-1.92.36-2.57,1.08c-.65.72-.97,1.66-.97,2.81v12.91c0,.14-.05.27-.15.37-.1.1-.22.15-.37.15h-5.05c-.14,0-.27-.05-.37-.15-.1-.1-.15-.22-.15-.37v-21.15c0-.14.05-.27.15-.37.1-.1.22-.15.37-.15h5.05c.14,0,.27.05.37.15.1.1.15.22.15.37v1.51c0,.09.03.14.09.17.06.03.1.01.13-.04,1.18-1.67,2.94-2.5,5.27-2.5s4.16.7,5.57,2.11Z"/>
    <path class="cls-4" d="M494.73,108.82c-1.6-.82-2.83-1.99-3.71-3.5-.88-1.51-1.32-3.24-1.32-5.2v-11.18c0-1.96.44-3.68,1.32-5.16.88-1.48,2.11-2.63,3.71-3.45,1.6-.82,3.43-1.23,5.5-1.23s3.9.4,5.48,1.19c1.58.79,2.81,1.91,3.69,3.35.88,1.44,1.32,3.11,1.32,5.01v.04c0,.14-.04.26-.13.35-.09.09-.19.13-.3.13l-3.28.17c-.29,0-.43-.13-.43-.39v-.13c0-1.84-.58-3.32-1.73-4.45-1.15-1.12-2.69-1.68-4.62-1.68s-3.47.56-4.64,1.68c-1.17,1.12-1.75,2.6-1.75,4.45v11.48c0,1.84.58,3.32,1.75,4.45,1.17,1.12,2.71,1.68,4.64,1.68s3.47-.56,4.62-1.68c1.15-1.12,1.73-2.6,1.73-4.45v-.09c0-.26.14-.39.43-.39l3.28.17c.29,0,.43.14.43.43,0,1.9-.44,3.58-1.32,5.03-.88,1.45-2.11,2.58-3.69,3.39-1.58.81-3.41,1.21-5.48,1.21s-3.91-.41-5.5-1.23Z"/>
    <path class="cls-4" d="M519.57,108.39c-1.58-1.08-2.69-2.58-3.32-4.51-.52-1.55-.78-3.31-.78-5.27s.24-3.77.73-5.18c.63-1.9,1.74-3.39,3.32-4.47,1.58-1.08,3.47-1.62,5.66-1.62,2.07,0,3.88.54,5.42,1.62,1.54,1.08,2.64,2.55,3.3,4.43.52,1.47.78,3.19.78,5.18s-.26,3.78-.78,5.31c-.63,1.93-1.73,3.43-3.28,4.51-1.55,1.08-3.38,1.62-5.48,1.62s-3.99-.54-5.57-1.62ZM528.16,105.45c.86-.65,1.48-1.56,1.86-2.74.32-1.09.47-2.45.47-4.06s-.14-2.95-.43-4.02c-.37-1.18-.99-2.09-1.86-2.74-.86-.65-1.91-.97-3.15-.97s-2.2.32-3.07.97c-.86.65-1.48,1.56-1.86,2.74-.32,1.01-.47,2.35-.47,4.02s.16,3.02.47,4.06c.35,1.18.96,2.09,1.83,2.74.88.65,1.94.97,3.17.97,1.15,0,2.16-.32,3.02-.97Z"/>
    <path class="cls-4" d="M555.53,89.44c1.38,1.37,2.07,3.22,2.07,5.55v14.25c0,.29-.14.43-.43.43h-3.28c-.29,0-.43-.14-.43-.43v-13.43c0-1.44-.42-2.6-1.25-3.5-.84-.89-1.94-1.34-3.32-1.34s-2.46.45-3.32,1.34c-.86.89-1.29,2.04-1.29,3.45v13.47c0,.29-.14.43-.43.43h-3.28c-.29,0-.43-.14-.43-.43v-21.11c0-.29.14-.43.43-.43h3.28c.29,0,.43.14.43.43v1.55c0,.06.02.1.06.13.04.03.08.01.11-.04,1.24-1.58,3.06-2.38,5.48-2.38s4.23.68,5.61,2.05Z"/>
    <path class="cls-4" d="M568.18,109.31l-7.04-21.15-.04-.17c0-.2.13-.3.39-.3h3.63c.26,0,.43.12.52.35l4.75,15.63c.03.06.07.09.13.09s.1-.03.13-.09l4.71-15.63c.09-.23.26-.35.52-.35l3.63.04c.32,0,.43.16.35.48l-6.99,21.11c-.09.23-.26.35-.52.35h-3.63c-.26,0-.43-.11-.52-.35Z"/>
    <path class="cls-4" d="M601.08,99.9c0,.29-.14.43-.43.43h-13.77c-.12,0-.17.06-.17.17,0,.98.09,1.73.26,2.25.32,1.15.96,2.05,1.92,2.7s2.18.97,3.65.97c2.13,0,3.77-.88,4.92-2.63.14-.29.33-.33.56-.13l2.46,1.64c.2.17.24.36.13.56-.81,1.3-1.95,2.32-3.43,3.07-1.48.75-3.16,1.12-5.03,1.12-2.1,0-3.87-.46-5.31-1.38-1.44-.92-2.52-2.23-3.24-3.93-.69-1.7-1.04-3.76-1.04-6.17,0-2.1.16-3.7.47-4.79.52-1.99,1.55-3.55,3.11-4.71,1.55-1.15,3.44-1.73,5.66-1.73,2.91,0,5.08.73,6.52,2.18,1.44,1.45,2.32,3.59,2.63,6.41.11,1.18.16,2.5.13,3.97ZM588.73,91.85c-.81.62-1.35,1.45-1.64,2.48-.2.63-.33,1.44-.39,2.42,0,.12.06.17.17.17h9.89c.11,0,.17-.06.17-.17-.06-.95-.14-1.65-.26-2.12-.29-1.12-.86-2.02-1.71-2.7-.85-.67-1.91-1.01-3.17-1.01s-2.26.31-3.06.93Z"/>
    <path class="cls-4" d="M618.43,88.03c.2.09.27.26.22.52l-.69,3.24c-.03.26-.2.35-.52.26-.49-.2-1.07-.3-1.73-.3l-.6.04c-1.35.06-2.47.53-3.35,1.4-.88.88-1.32,2.02-1.32,3.43v12.61c0,.29-.14.43-.43.43h-3.28c-.29,0-.43-.14-.43-.43v-21.11c0-.29.14-.43.43-.43h3.28c.29,0,.43.14.43.43v2.29c0,.09.02.14.06.15.04.01.08,0,.11-.06,1.29-2.01,3.06-3.02,5.31-3.02.92,0,1.76.19,2.5.56Z"/>
    <path class="cls-4" d="M625.27,109.14c-1.31-.52-2.32-1.23-3.04-2.14-.72-.91-1.08-1.91-1.08-3v-.47c0-.29.14-.43.43-.43h3.11c.29,0,.43.14.43.43v.22c0,.81.44,1.51,1.32,2.11.88.6,1.99.91,3.35.91s2.35-.28,3.15-.84,1.21-1.27,1.21-2.14-.37-1.46-1.12-1.88c-.75-.42-1.96-.86-3.63-1.32-1.64-.46-3.02-.93-4.12-1.4-1.11-.48-2.04-1.15-2.81-2.03s-1.14-2.01-1.14-3.39c0-1.93.76-3.46,2.27-4.6,1.51-1.14,3.52-1.71,6.02-1.71,1.67,0,3.14.27,4.42.8,1.28.53,2.27,1.27,2.96,2.22.69.95,1.04,2.01,1.04,3.19v.13c0,.29-.14.43-.43.43h-3.02c-.29,0-.43-.14-.43-.43v-.13c0-.83-.41-1.53-1.23-2.09-.82-.56-1.94-.84-3.35-.84-1.27,0-2.3.24-3.09.73-.79.49-1.19,1.15-1.19,1.99s.38,1.47,1.14,1.9c.76.43,1.99.89,3.69,1.38,1.67.46,3.06.91,4.17,1.36,1.11.45,2.05,1.11,2.83,1.99.78.88,1.17,2.02,1.17,3.43,0,1.96-.77,3.51-2.31,4.66-1.54,1.15-3.59,1.73-6.15,1.73-1.73,0-3.25-.26-4.55-.78Z"/>
    <path class="cls-4" d="M655.75,88.27c1.31.62,2.32,1.48,3.02,2.59.7,1.11,1.06,2.37,1.06,3.78v14.59c0,.29-.14.43-.43.43h-3.28c-.29,0-.43-.14-.43-.43v-1.55c0-.14-.07-.17-.22-.09-.75.78-1.66,1.37-2.74,1.79-1.08.42-2.28.63-3.6.63-2.13,0-3.89-.54-5.29-1.62s-2.09-2.71-2.09-4.9.78-4.01,2.35-5.29c1.57-1.28,3.76-1.92,6.58-1.92h4.83c.11,0,.17-.06.17-.17v-1.17c0-1.27-.37-2.25-1.1-2.96-.73-.7-1.85-1.06-3.35-1.06-1.21,0-2.19.24-2.96.71-.76.48-1.23,1.12-1.4,1.92-.09.29-.26.42-.52.39l-3.5-.48c-.29-.06-.42-.17-.39-.35.23-1.7,1.14-3.09,2.72-4.17,1.58-1.08,3.57-1.62,5.96-1.62,1.76,0,3.29.31,4.6.93ZM654,105.3c1.12-.81,1.68-1.83,1.68-3.07v-2.55c0-.11-.06-.17-.17-.17h-4.06c-1.7,0-3.05.33-4.06.99-1.01.66-1.51,1.58-1.51,2.76,0,1.07.38,1.87,1.14,2.42.76.55,1.76.82,3,.82,1.52,0,2.85-.4,3.97-1.21Z"/>
    <path class="cls-4" d="M675.55,91.1h-4.66c-.12,0-.17.06-.17.17v11.44c0,1.21.27,2.08.82,2.61.55.53,1.4.8,2.55.8h1.25c.29,0,.43.14.43.43v2.68c0,.29-.14.43-.43.43-.92.06-1.58.09-1.99.09-2.19,0-3.84-.4-4.94-1.19-1.11-.79-1.66-2.25-1.66-4.38v-12.91c0-.11-.06-.17-.17-.17h-2.63c-.29,0-.43-.14-.43-.43v-2.55c0-.29.14-.43.43-.43h2.63c.11,0,.17-.06.17-.17v-5.09c0-.29.14-.43.43-.43h3.11c.29,0,.43.14.43.43v5.09c0,.11.06.17.17.17h4.66c.29,0,.43.14.43.43v2.55c0,.29-.14.43-.43.43Z"/>
    <path class="cls-4" d="M681.59,83.46c-.52-.52-.78-1.18-.78-1.99s.26-1.47.78-1.99c.52-.52,1.18-.78,1.99-.78s1.47.26,1.99.78c.52.52.78,1.18.78,1.99s-.26,1.47-.78,1.99c-.52.52-1.18.78-1.99.78s-1.47-.26-1.99-.78ZM681.42,109.19v-21.07c0-.29.14-.43.43-.43h3.28c.29,0,.43.14.43.43v21.07c0,.29-.14.43-.43.43h-3.28c-.29,0-.43-.14-.43-.43Z"/>
    <path class="cls-4" d="M695.49,108.39c-1.58-1.08-2.69-2.58-3.32-4.51-.52-1.55-.78-3.31-.78-5.27s.24-3.77.73-5.18c.63-1.9,1.74-3.39,3.32-4.47,1.58-1.08,3.47-1.62,5.66-1.62,2.07,0,3.88.54,5.42,1.62,1.54,1.08,2.64,2.55,3.3,4.43.52,1.47.78,3.19.78,5.18s-.26,3.78-.78,5.31c-.63,1.93-1.73,3.43-3.28,4.51-1.55,1.08-3.38,1.62-5.48,1.62s-3.99-.54-5.57-1.62ZM704.08,105.45c.86-.65,1.48-1.56,1.86-2.74.32-1.09.47-2.45.47-4.06s-.14-2.95-.43-4.02c-.37-1.18-.99-2.09-1.86-2.74-.86-.65-1.91-.97-3.15-.97s-2.2.32-3.07.97c-.86.65-1.48,1.56-1.86,2.74-.32,1.01-.47,2.35-.47,4.02s.16,3.02.47,4.06c.35,1.18.96,2.09,1.83,2.74.88.65,1.94.97,3.17.97,1.15,0,2.16-.32,3.02-.97Z"/>
    <path class="cls-4" d="M731.45,89.44c1.38,1.37,2.07,3.22,2.07,5.55v14.25c0,.29-.14.43-.43.43h-3.28c-.29,0-.43-.14-.43-.43v-13.43c0-1.44-.42-2.6-1.25-3.5-.84-.89-1.94-1.34-3.32-1.34s-2.46.45-3.32,1.34c-.86.89-1.29,2.04-1.29,3.45v13.47c0,.29-.14.43-.43.43h-3.28c-.29,0-.43-.14-.43-.43v-21.11c0-.29.14-.43.43-.43h3.28c.29,0,.43.14.43.43v1.55c0,.06.02.1.06.13.04.03.08.01.11-.04,1.24-1.58,3.06-2.38,5.48-2.38s4.23.68,5.61,2.05Z"/>
    <path class="cls-4" d="M752.06,88.27c1.31.62,2.32,1.48,3.02,2.59.7,1.11,1.06,2.37,1.06,3.78v14.59c0,.29-.14.43-.43.43h-3.28c-.29,0-.43-.14-.43-.43v-1.55c0-.14-.07-.17-.22-.09-.75.78-1.66,1.37-2.74,1.79-1.08.42-2.28.63-3.6.63-2.13,0-3.89-.54-5.29-1.62-1.4-1.08-2.09-2.71-2.09-4.9s.78-4.01,2.35-5.29c1.57-1.28,3.76-1.92,6.58-1.92h4.83c.11,0,.17-.06.17-.17v-1.17c0-1.27-.37-2.25-1.1-2.96-.73-.7-1.85-1.06-3.35-1.06-1.21,0-2.19.24-2.96.71-.76.48-1.23,1.12-1.4,1.92-.09.29-.26.42-.52.39l-3.5-.48c-.29-.06-.42-.17-.39-.35.23-1.7,1.14-3.09,2.72-4.17,1.58-1.08,3.57-1.62,5.96-1.62,1.76,0,3.29.31,4.6.93ZM750.32,105.3c1.12-.81,1.68-1.83,1.68-3.07v-2.55c0-.11-.06-.17-.17-.17h-4.06c-1.7,0-3.05.33-4.06.99-1.01.66-1.51,1.58-1.51,2.76,0,1.07.38,1.87,1.14,2.42.76.55,1.76.82,3,.82,1.52,0,2.85-.4,3.97-1.21Z"/>
    <path class="cls-4" d="M761.75,109.23v-29.36c0-.29.14-.43.43-.43h3.28c.29,0,.43.14.43.43v29.36c0,.29-.14.43-.43.43h-3.28c-.29,0-.43-.14-.43-.43Z"/>
    <path class="cls-4" d="M809.33,83.02h-15.33c-.12,0-.17.06-.17.17v9.28c0,.11.06.17.17.17h10.53c.29,0,.43.14.43.43v2.72c0,.29-.14.43-.43.43h-10.53c-.12,0-.17.06-.17.17v9.5c0,.12.06.17.17.17h15.33c.29,0,.43.14.43.43v2.72c0,.29-.14.43-.43.43h-19.21c-.29,0-.43-.14-.43-.43v-29.36c0-.29.14-.43.43-.43h19.21c.29,0,.43.14.43.43v2.72c0,.29-.14.43-.43.43Z"/>
    <path class="cls-4" d="M813.08,109.51c-.06-.1-.04-.22.04-.37l7.17-10.32c.06-.09.06-.17,0-.26l-7.17-10.36-.09-.22c0-.2.13-.3.39-.3h3.5c.23,0,.4.09.52.26l5.05,7.38s.07.04.13.04.1-.01.13-.04l5.01-7.38c.11-.17.29-.26.52-.26h3.76c.17,0,.29.05.34.15.06.1.04.22-.04.37l-7.17,10.36c-.03.09-.03.17,0,.26l7.17,10.32.09.22c0,.2-.13.3-.39.3h-3.54c-.23,0-.4-.09-.52-.26l-5.01-7.38c-.03-.06-.07-.09-.13-.09s-.1.03-.13.09l-5.05,7.38c-.12.17-.29.26-.52.26h-3.71c-.17,0-.29-.05-.34-.15Z"/>
    <path class="cls-4" d="M855.17,98.74c0,2.01-.23,3.76-.69,5.22-.6,1.93-1.6,3.42-2.98,4.47s-3.15,1.58-5.31,1.58c-.98,0-1.91-.19-2.78-.58-.88-.39-1.63-.94-2.27-1.66-.06-.06-.11-.07-.15-.04s-.06.07-.06.13v9.63c0,.29-.14.43-.43.43h-3.28c-.29,0-.43-.14-.43-.43v-29.35c0-.29.14-.43.43-.43h3.28c.29,0,.43.14.43.43v1.42c0,.06.02.1.06.13.04.03.09.01.15-.04.63-.72,1.38-1.28,2.25-1.68.86-.4,1.8-.6,2.81-.6,2.07,0,3.79.51,5.16,1.53,1.37,1.02,2.37,2.47,3,4.34.55,1.55.82,3.4.82,5.53ZM850.99,98.65c0-2.22-.36-4-1.08-5.35-.84-1.58-2.2-2.37-4.1-2.37-1.67,0-2.94.78-3.8,2.33-.69,1.24-1.04,3.05-1.04,5.44s.37,4.26,1.12,5.52c.83,1.47,2.06,2.2,3.67,2.2,1.73,0,3.01-.69,3.84-2.07.92-1.38,1.38-3.28,1.38-5.7Z"/>
    <path class="cls-4" d="M878.27,99.9c0,.29-.14.43-.43.43h-13.77c-.12,0-.17.06-.17.17,0,.98.09,1.73.26,2.25.32,1.15.96,2.05,1.92,2.7s2.18.97,3.65.97c2.13,0,3.77-.88,4.92-2.63.14-.29.33-.33.56-.13l2.46,1.64c.2.17.24.36.13.56-.81,1.3-1.95,2.32-3.43,3.07-1.48.75-3.16,1.12-5.03,1.12-2.1,0-3.87-.46-5.31-1.38-1.44-.92-2.52-2.23-3.24-3.93-.69-1.7-1.04-3.76-1.04-6.17,0-2.1.16-3.7.47-4.79.52-1.99,1.55-3.55,3.11-4.71,1.55-1.15,3.44-1.73,5.66-1.73,2.91,0,5.08.73,6.52,2.18,1.44,1.45,2.32,3.59,2.63,6.41.11,1.18.16,2.5.13,3.97ZM865.92,91.85c-.81.62-1.35,1.45-1.64,2.48-.2.63-.33,1.44-.39,2.42,0,.12.06.17.17.17h9.89c.11,0,.17-.06.17-.17-.06-.95-.14-1.65-.26-2.12-.29-1.12-.86-2.02-1.71-2.7-.85-.67-1.91-1.01-3.17-1.01s-2.26.31-3.06.93Z"/>
    <path class="cls-4" d="M895.62,88.03c.2.09.27.26.22.52l-.69,3.24c-.03.26-.2.35-.52.26-.49-.2-1.07-.3-1.73-.3l-.6.04c-1.35.06-2.47.53-3.35,1.4-.88.88-1.32,2.02-1.32,3.43v12.61c0,.29-.14.43-.43.43h-3.28c-.29,0-.43-.14-.43-.43v-21.11c0-.29.14-.43.43-.43h3.28c.29,0,.43.14.43.43v2.29c0,.09.02.14.06.15.04.01.08,0,.11-.06,1.29-2.01,3.06-3.02,5.31-3.02.92,0,1.76.19,2.5.56Z"/>
    <path class="cls-4" d="M900.03,83.46c-.52-.52-.78-1.18-.78-1.99s.26-1.47.78-1.99c.52-.52,1.18-.78,1.99-.78s1.47.26,1.99.78c.52.52.78,1.18.78,1.99s-.26,1.47-.78,1.99c-.52.52-1.18.78-1.99.78s-1.47-.26-1.99-.78ZM899.85,109.19v-21.07c0-.29.14-.43.43-.43h3.28c.29,0,.43.14.43.43v21.07c0,.29-.14.43-.43.43h-3.28c-.29,0-.43-.14-.43-.43Z"/>
    <path class="cls-4" d="M928.43,99.9c0,.29-.14.43-.43.43h-13.77c-.12,0-.17.06-.17.17,0,.98.09,1.73.26,2.25.32,1.15.96,2.05,1.92,2.7s2.18.97,3.65.97c2.13,0,3.77-.88,4.92-2.63.14-.29.33-.33.56-.13l2.46,1.64c.2.17.24.36.13.56-.81,1.3-1.95,2.32-3.43,3.07-1.48.75-3.16,1.12-5.03,1.12-2.1,0-3.87-.46-5.31-1.38-1.44-.92-2.52-2.23-3.24-3.93-.69-1.7-1.04-3.76-1.04-6.17,0-2.1.16-3.7.47-4.79.52-1.99,1.55-3.55,3.11-4.71,1.55-1.15,3.44-1.73,5.66-1.73,2.91,0,5.08.73,6.52,2.18,1.44,1.45,2.32,3.59,2.63,6.41.11,1.18.16,2.5.13,3.97ZM916.08,91.85c-.81.62-1.35,1.45-1.64,2.48-.2.63-.33,1.44-.39,2.42,0,.12.06.17.17.17h9.89c.11,0,.17-.06.17-.17-.06-.95-.14-1.65-.26-2.12-.29-1.12-.86-2.02-1.71-2.7-.85-.67-1.91-1.01-3.17-1.01s-2.26.31-3.06.93Z"/>
    <path class="cls-4" d="M949.07,89.44c1.38,1.37,2.07,3.22,2.07,5.55v14.25c0,.29-.14.43-.43.43h-3.28c-.29,0-.43-.14-.43-.43v-13.43c0-1.44-.42-2.6-1.25-3.5-.84-.89-1.94-1.34-3.32-1.34s-2.46.45-3.32,1.34c-.86.89-1.29,2.04-1.29,3.45v13.47c0,.29-.14.43-.43.43h-3.28c-.29,0-.43-.14-.43-.43v-21.11c0-.29.14-.43.43-.43h3.28c.29,0,.43.14.43.43v1.55c0,.06.02.1.06.13.04.03.08.01.11-.04,1.24-1.58,3.06-2.38,5.48-2.38s4.23.68,5.61,2.05Z"/>
    <path class="cls-4" d="M959.99,108.34c-1.55-1.11-2.62-2.61-3.19-4.51-.43-1.32-.65-3.06-.65-5.22,0-1.99.22-3.73.65-5.22.58-1.84,1.65-3.31,3.22-4.4,1.57-1.09,3.43-1.64,5.59-1.64s4.04.55,5.66,1.64c1.61,1.09,2.66,2.47,3.15,4.14.17.46.29.94.35,1.42,0,.23-.13.37-.39.43l-3.24.48h-.09c-.2,0-.35-.13-.43-.39l-.13-.69c-.23-.98-.79-1.8-1.68-2.46-.89-.66-1.97-.99-3.24-.99s-2.29.33-3.15.99c-.86.66-1.42,1.54-1.68,2.63-.26,1.04-.39,2.4-.39,4.1s.13,3.02.39,4.06c.29,1.15.86,2.06,1.71,2.72.85.66,1.89.99,3.13.99s2.35-.33,3.26-.99c.91-.66,1.47-1.52,1.71-2.59.03-.03.04-.06.02-.11-.01-.04,0-.08.02-.11v-.17c.09-.23.24-.32.48-.26l3.24.52c.23.06.35.17.35.35v.17c0,.26-.07.58-.22.95-.49,1.76-1.54,3.17-3.15,4.23-1.61,1.07-3.5,1.6-5.66,1.6s-4.06-.55-5.61-1.66Z"/>
    <path class="cls-4" d="M997.24,99.9c0,.29-.14.43-.43.43h-13.77c-.12,0-.17.06-.17.17,0,.98.09,1.73.26,2.25.32,1.15.96,2.05,1.92,2.7s2.18.97,3.65.97c2.13,0,3.77-.88,4.92-2.63.14-.29.33-.33.56-.13l2.46,1.64c.2.17.24.36.13.56-.81,1.3-1.95,2.32-3.43,3.07-1.48.75-3.16,1.12-5.03,1.12-2.1,0-3.87-.46-5.31-1.38-1.44-.92-2.52-2.23-3.24-3.93-.69-1.7-1.04-3.76-1.04-6.17,0-2.1.16-3.7.47-4.79.52-1.99,1.55-3.55,3.11-4.71,1.55-1.15,3.44-1.73,5.66-1.73,2.91,0,5.08.73,6.52,2.18,1.44,1.45,2.32,3.59,2.63,6.41.11,1.18.16,2.5.13,3.97ZM984.9,91.85c-.81.62-1.35,1.45-1.64,2.48-.2.63-.33,1.44-.39,2.42,0,.12.06.17.17.17h9.89c.11,0,.17-.06.17-.17-.06-.95-.14-1.65-.26-2.12-.29-1.12-.86-2.02-1.71-2.7-.85-.67-1.91-1.01-3.17-1.01s-2.26.31-3.06.93Z"/>
    <path class="cls-4" d="M1005.3,109.14c-1.31-.52-2.32-1.23-3.04-2.14-.72-.91-1.08-1.91-1.08-3v-.47c0-.29.14-.43.43-.43h3.11c.29,0,.43.14.43.43v.22c0,.81.44,1.51,1.32,2.11.88.6,1.99.91,3.35.91s2.35-.28,3.15-.84,1.21-1.27,1.21-2.14-.37-1.46-1.12-1.88c-.75-.42-1.96-.86-3.63-1.32-1.64-.46-3.02-.93-4.12-1.4-1.11-.48-2.04-1.15-2.81-2.03s-1.14-2.01-1.14-3.39c0-1.93.76-3.46,2.27-4.6,1.51-1.14,3.52-1.71,6.02-1.71,1.67,0,3.14.27,4.42.8,1.28.53,2.27,1.27,2.96,2.22.69.95,1.04,2.01,1.04,3.19v.13c0,.29-.14.43-.43.43h-3.02c-.29,0-.43-.14-.43-.43v-.13c0-.83-.41-1.53-1.23-2.09-.82-.56-1.94-.84-3.35-.84-1.27,0-2.3.24-3.09.73-.79.49-1.19,1.15-1.19,1.99s.38,1.47,1.14,1.9c.76.43,1.99.89,3.69,1.38,1.67.46,3.06.91,4.17,1.36,1.11.45,2.05,1.11,2.83,1.99.78.88,1.17,2.02,1.17,3.43,0,1.96-.77,3.51-2.31,4.66-1.54,1.15-3.59,1.73-6.15,1.73-1.73,0-3.25-.26-4.55-.78Z"/>
  </g>
  <rect class="cls-4" x="459.66" y="21.69" width="2" height="108.35"/>
  <g>
    <g>
      <path class="cls-1" d="M404.85,45.27s-1.63,1.98-3.41,4.19l25.15,29.2,4.43-50.69c-10.16,4.03-19.14,9.99-26.17,17.29Z"/>
      <path class="cls-4" d="M76.78,59.31v53.53c0,.14-.02.29-.06.43v1.69c0,11.56-9.37,20.93-20.94,20.93h-12.74c-1.17,0-2.12-.94-2.12-2.12v-8.46c0-1.17.94-2.12,2.12-2.12h12.74c4.55,0,8.25-3.69,8.25-8.24v-.67c-5.42,0-11.34.01-14.23.01-5.95,0-10.7-.92-14.26-4.44-3.56-3.52-5.34-8.33-5.34-14.42v-36.12c0-.41.16-.74.47-1.02.24-.2.54-.31.85-.31h10.13c.37,0,.68.13.94.39.26.25.39.56.39.93v33.47c0,3.37.95,6.11,2.86,8.2,1.91,2.09,4.44,2.32,7.6,2.32,2.55,0,7.88-.12,9.83-.16.41-.01.74-.35.74-.76v-43.08c0-.41.16-.75.48-1.02.23-.2.54-.3.84-.3h10.13c.37,0,.68.13.94.39.26.25.38.56.38.93Z"/>
      <g>
        <path class="cls-4" d="M155.89,115.41c-.26-.26-.39-.58-.39-.95v-54.7c0-.37.13-.69.39-.95.26-.26.58-.39.95-.39h10.31c.37,0,.69.13.95.39.26.26.39.58.39.95v54.7c0,.37-.13.69-.39.95-.26.26-.58.39-.95.39h-10.31c-.38,0-.69-.13-.95-.39Z"/>
        <path class="cls-4" d="M182.33,115.41c-.26-.26-.39-.58-.39-.95v-9.53c0-.67.19-1.19.56-1.57l27.58-32.4c.37-.45.26-.67-.34-.67h-25.89c-.37,0-.69-.13-.95-.39-.26-.26-.39-.58-.39-.95v-9.08c0-.37.13-.69.39-.95.26-.26.58-.39.95-.39h40.8c.37,0,.69.13.95.39.26.26.39.58.39.95v9.53c0,.6-.22,1.12-.67,1.57l-28.14,32.4c-.3.45-.19.67.34.67h27.46c.37,0,.69.13.95.39.26.26.39.58.39.95v9.08c0,.37-.13.69-.39.95-.26.26-.58.39-.95.39h-41.7c-.37,0-.69-.13-.95-.39Z"/>
        <path class="cls-4" d="M347.11,77.68v36.77c0,.42-.16.76-.48,1.04-.24.21-.55.31-.87.31h-10.31c-.37,0-.69-.13-.95-.39-.26-.26-.39-.58-.39-.95v-34.08c0-3.43-.97-6.22-2.91-8.35-1.94-2.13-4.52-2.36-7.73-2.36-2.6,0-8.02.12-10.01.16-.42,0-.75.35-.75.77v43.85c0,.42-.16.76-.48,1.04-.24.2-.55.31-.86.31h-10.32c-.37,0-.69-.13-.95-.39-.26-.26-.39-.58-.39-.95v-54.5c0-.43.16-.87.49-1.14.24-.2.53-.3.85-.3,0,0,19.91-.03,26.12-.03s10.89.93,14.52,4.52c3.62,3.59,5.44,8.48,5.44,14.68Z"/>
        <path class="cls-4" d="M115.75,70.56c9.13,0,16.55,7.43,16.55,16.55s-7.43,16.55-16.55,16.55-16.55-7.43-16.55-16.55,7.43-16.55,16.55-16.55M115.75,57.53c-16.34,0-29.58,13.24-29.58,29.58s13.24,29.58,29.58,29.58,29.58-13.24,29.58-29.58-13.24-29.58-29.58-29.58h0Z"/>
        <path class="cls-4" d="M271.72,103.17c-5.66,3.45-14.78,3.34-19.98-.87-2.61-2.05-4.51-5.13-5.63-8.39l44.41-5.45c.8-.1,1.36-.82,1.27-1.62-2.5-21.89-18.64-33.98-40.58-27.2-15.16,4.85-21.73,21.58-17.29,35.77,8.35,25.48,41.52,28.04,54.37,5.38.35-.61.15-1.4-.44-1.78l-6.88-4.39c-.65-.41-1.52-.2-1.88.48-1.74,3.27-4.3,6.23-7.37,8.07ZM248.18,77.19c2.85-5,8.71-7.16,14.36-7.63,7.58-.91,13.9,3.1,16.55,10.23l-33.35,4.09c.48-2.41,1.29-4.74,2.44-6.7Z"/>
      </g>
    </g>
    <path class="cls-2" d="M366.14,119.47l16.95-20.72c-19.3-11.43-23.81-25-23.01-41.54.54-11.11,7.11-21.54,15.17-29.28l21.9,25.9c-4.39,6.86-7.04,14.65-7.44,22.99-.45,9.13,1.85,17.87,6.27,25.66l-29.59,17.27c-.19.11-.38-.12-.25-.29Z"/>
    <path class="cls-3" d="M425.62,87.23l-29.64,15.27c-4.42-7.79-6.72-16.53-6.27-25.66.41-8.34,3.06-16.13,7.44-22.99l28.39,33.25.07.14Z"/>
  </g>
</svg>