<?xml version="1.0" encoding="UTF-8"?>
<svg id="Capa_1" xmlns="http://www.w3.org/2000/svg" version="1.1" viewBox="0 0 1920 714.3">
  <defs>
    <style>
      .st0 { fill: #fd6421; }
      .st1 { fill: #4a3abf; }
      .st2 { fill: #1a66ff; }
      .st3 { fill: #272a35; }
    </style>
  </defs>
  <path class="st0" d="M1612.5,217.9s-6.1,7.4-12.8,15.7l94.2,109.4,16.6-189.8c-38.1,15.1-71.7,37.4-98,64.8Z"/>
  <path class="st3" d="M384,270.5v200.5c0,.5,0,1.1-.2,1.6v6.3c0,43.3-35.1,78.4-78.4,78.4h-47.7c-4.4,0-7.9-3.5-7.9-7.9v-31.7c0-4.4,3.5-7.9,7.9-7.9h47.7c17.1,0,30.9-13.8,30.9-30.9v-2.5c-20.3,0-42.5,0-53.3,0-22.3,0-40.1-3.4-53.4-16.6-13.3-13.2-20-31.2-20-54v-135.3c0-1.5.6-2.8,1.8-3.8.9-.8,2-1.1,3.2-1.1h37.9c1.4,0,2.5.5,3.5,1.5,1,1,1.5,2.1,1.5,3.5v125.4c0,12.6,3.6,22.9,10.7,30.7,7.1,7.8,16.6,8.7,28.5,8.7s29.5-.4,36.8-.6c1.5,0,2.8-1.3,2.8-2.8v-161.3c0-1.5.6-2.8,1.8-3.8.9-.8,2-1.1,3.2-1.1h37.9c1.4,0,2.5.5,3.5,1.5,1,1,1.4,2.1,1.4,3.5Z"/>
  <g>
    <path class="st3" d="M680.2,480.5c-1-1-1.5-2.2-1.5-3.6v-204.9c0-1.4.5-2.6,1.5-3.6,1-1,2.2-1.5,3.6-1.5h38.6c1.4,0,2.6.5,3.6,1.5,1,1,1.5,2.2,1.5,3.6v204.9c0,1.4-.5,2.6-1.5,3.6-1,1-2.2,1.5-3.6,1.5h-38.6c-1.4,0-2.6-.5-3.6-1.5Z"/>
    <path class="st3" d="M779.2,480.5c-1-1-1.5-2.2-1.5-3.6v-35.7c0-2.5.7-4.5,2.1-5.9l103.3-121.3c1.4-1.7,1-2.5-1.3-2.5h-97c-1.4,0-2.6-.5-3.6-1.5-1-1-1.5-2.2-1.5-3.6v-34c0-1.4.5-2.6,1.5-3.6,1-1,2.2-1.5,3.6-1.5h152.8c1.4,0,2.6.5,3.6,1.5,1,1,1.5,2.2,1.5,3.6v35.7c0,2.2-.8,4.2-2.5,5.9l-105.4,121.3c-1.1,1.7-.7,2.5,1.3,2.5h102.8c1.4,0,2.6.5,3.6,1.5,1,1,1.5,2.2,1.5,3.6v34c0,1.4-.5,2.6-1.5,3.6-1,1-2.2,1.5-3.6,1.5h-156.2c-1.4,0-2.6-.5-3.6-1.5Z"/>
    <path class="st3" d="M1396.3,339.3v137.7c0,1.6-.6,2.8-1.8,3.9-.9.8-2.1,1.2-3.2,1.2h-38.6c-1.4,0-2.6-.5-3.6-1.5-1-1-1.5-2.2-1.5-3.6v-127.6c0-12.9-3.6-23.3-10.9-31.3-7.3-8-16.9-8.8-29-8.8s-30,.4-37.5.6c-1.6,0-2.8,1.3-2.8,2.9v164.2c0,1.6-.6,2.9-1.8,3.9-.9.8-2,1.2-3.2,1.2h-38.6c-1.4,0-2.6-.5-3.6-1.5-1-1-1.5-2.2-1.5-3.6v-204.1c0-1.6.6-3.2,1.8-4.3.9-.7,2-1.1,3.2-1.1,0,0,74.6-.1,97.8-.1s40.8,3.5,54.4,16.9c13.6,13.4,20.4,31.8,20.4,55Z"/>
    <path class="st3" d="M529.9,312.6c34.2,0,62,27.8,62,62s-27.8,62-62,62-62-27.8-62-62,27.8-62,62-62M529.9,263.8c-61.2,0-110.8,49.6-110.8,110.8s49.6,110.8,110.8,110.8,110.8-49.6,110.8-110.8-49.6-110.8-110.8-110.8h0Z"/>
    <path class="st3" d="M1114,434.7c-21.2,12.9-55.4,12.5-74.8-3.3-9.8-7.7-16.9-19.2-21.1-31.4l166.3-20.4c3-.4,5.1-3.1,4.8-6.1-9.4-82-69.8-127.2-152-101.9-56.8,18.2-81.4,80.8-64.7,133.9,31.3,95.4,155.5,105,203.6,20.2,1.3-2.3.6-5.2-1.7-6.7l-25.8-16.5c-2.4-1.5-5.7-.7-7,1.8-6.5,12.3-16.1,23.3-27.6,30.2ZM1025.8,337.4c10.7-18.7,32.6-26.8,53.8-28.6,28.4-3.4,52,11.6,62,38.3l-124.9,15.3c1.8-9,4.8-17.7,9.1-25.1Z"/>
  </g>
  <path class="st2" d="M1467.5,495.8l63.5-77.6c-72.3-42.8-89.2-93.6-86.2-155.5,2-41.6,26.6-80.7,56.8-109.6l82,97c-16.4,25.7-26.3,54.9-27.9,86.1-1.7,34.2,6.9,66.9,23.5,96.1l-110.8,64.7c-.7.4-1.4-.5-.9-1.1Z"/>
  <path class="st1" d="M1690.3,375l-111,57.2c-16.6-29.2-25.1-61.9-23.5-96.1,1.5-31.2,11.4-60.4,27.9-86.1l106.3,124.5.3.5Z"/>
</svg>
