<?xml version="1.0" encoding="UTF-8"?>
<svg id="Layer_1" data-name="Layer 1" xmlns="http://www.w3.org/2000/svg" viewBox="0 0 500 500">
  <defs>
    <style>
      .cls-1 {
        fill: #fff;
        stroke-width: 0px;
      }
    </style>
  </defs>
  <g id="negativo-b">
    <g>
      <g>
        <path class="cls-1" d="M117.74,311.85v63.91c0,.17-.02.35-.07.51v2.01c0,13.8-11.19,24.99-25,24.99h-15.21c-1.4,0-2.53-1.13-2.53-2.53v-10.1c0-1.39,1.13-2.53,2.53-2.53h15.21c5.44,0,9.85-4.41,9.85-9.84v-.8c-6.47,0-13.54.01-16.99.01-7.1,0-12.77-1.09-17.03-5.3-4.25-4.2-6.38-9.95-6.38-17.22v-43.12c0-.49.19-.89.56-1.21.28-.24.64-.37,1.01-.37h12.09c.44,0,.81.15,1.12.46.31.3.46.67.46,1.12v39.97c0,4.03,1.14,7.3,3.42,9.79,2.28,2.5,5.3,2.77,9.07,2.77,3.04,0,9.4-.14,11.74-.19.49-.01.88-.41.88-.9v-51.43c0-.49.19-.89.57-1.22.28-.24.64-.36,1.01-.36h12.1c.44,0,.81.15,1.12.46.31.3.46.67.46,1.12Z"/>
        <g>
          <path class="cls-1" d="M212.19,378.82c-.31-.31-.47-.69-.47-1.14v-65.31c0-.45.15-.82.47-1.14.31-.31.69-.47,1.14-.47h12.31c.45,0,.82.16,1.14.47.31.31.47.69.47,1.14v65.31c0,.45-.16.83-.47,1.14-.31.31-.69.47-1.14.47h-12.31c-.45,0-.83-.15-1.14-.47Z"/>
          <path class="cls-1" d="M243.75,378.82c-.31-.31-.47-.69-.47-1.14v-11.38c0-.8.22-1.43.67-1.87l32.92-38.68c.45-.54.31-.8-.4-.8h-30.92c-.45,0-.83-.15-1.14-.47-.31-.31-.47-.69-.47-1.14v-10.84c0-.45.15-.82.47-1.14.31-.31.69-.47,1.14-.47h48.72c.45,0,.82.16,1.14.47.31.31.47.69.47,1.14v11.38c0,.72-.27,1.34-.8,1.87l-33.59,38.68c-.36.54-.22.8.4.8h32.79c.45,0,.82.16,1.14.47.31.31.47.69.47,1.14v10.84c0,.45-.16.83-.47,1.14-.31.31-.69.47-1.14.47h-49.79c-.45,0-.83-.15-1.14-.47Z"/>
          <path class="cls-1" d="M440.49,333.79v43.9c0,.5-.19.91-.57,1.24-.29.25-.66.37-1.03.37h-12.31c-.45,0-.83-.16-1.14-.47-.32-.31-.47-.69-.47-1.14v-40.69c0-4.1-1.16-7.43-3.48-9.97-2.32-2.55-5.4-2.81-9.23-2.81-3.1,0-9.58.14-11.95.19-.5.01-.9.42-.9.92v52.36c0,.5-.19.91-.58,1.24-.28.24-.65.37-1.03.37h-12.32c-.45,0-.83-.16-1.14-.47-.32-.31-.47-.69-.47-1.14v-65.06c0-.52.19-1.03.59-1.36.29-.24.63-.36,1.02-.36,0,0,23.78-.04,31.18-.04s13,1.11,17.33,5.39c4.33,4.28,6.49,10.13,6.49,17.53Z"/>
          <path class="cls-1" d="M164.26,325.28c10.9,0,19.76,8.87,19.76,19.76s-8.87,19.76-19.76,19.76-19.76-8.87-19.76-19.76,8.87-19.76,19.76-19.76M164.26,309.72c-19.51,0-35.32,15.81-35.32,35.32s15.81,35.32,35.32,35.32,35.32-15.81,35.32-35.32-15.81-35.32-35.32-35.32h0Z"/>
          <path class="cls-1" d="M350.48,364.21c-6.76,4.11-17.65,3.98-23.86-1.04-3.12-2.45-5.38-6.12-6.73-10.01l53.02-6.51c.95-.12,1.63-.98,1.52-1.93-2.99-26.14-22.25-40.57-48.45-32.48-18.1,5.79-25.94,25.76-20.64,42.71,9.97,30.42,49.57,33.47,64.92,6.42.42-.73.18-1.67-.53-2.12l-8.22-5.24c-.77-.49-1.81-.24-2.24.57-2.08,3.91-5.13,7.44-8.79,9.64ZM322.38,333.2c3.4-5.97,10.4-8.55,17.14-9.11,9.05-1.09,16.59,3.7,19.76,12.22l-39.81,4.89c.57-2.88,1.54-5.65,2.92-8Z"/>
        </g>
      </g>
      <g>
        <path class="cls-1" d="M267.02,159.26s-2.81,3.42-5.91,7.26l43.54,50.56,7.67-87.76c-17.59,6.98-33.14,17.3-45.3,29.94Z"/>
        <path class="cls-1" d="M253.7,174.11l-37.91-44.84c-13.96,13.39-25.33,31.45-26.27,50.69-1.4,28.64,6.42,52.12,39.83,71.91l-29.35,35.87c-.23.29.11.69.43.5l51.24-29.89,51.32-26.43-.13-.24-49.16-57.57Z"/>
      </g>
    </g>
  </g>
</svg>