<?xml version="1.0" encoding="UTF-8"?>
<svg id="Capa_1" data-name="Capa 1" xmlns="http://www.w3.org/2000/svg" viewBox="0 0 1920 714.26">
  <defs>
    <style>
      .cls-1 { fill: #fd6421; }
      .cls-2 { fill: #fff; }
      .cls-3 { fill: #4a3abf; }
      .cls-4 { fill: #1a66ff; }
    </style>
  </defs>
  <path class="cls-1" d="M1612.48,217.89s-6.09,7.4-12.78,15.71l94.18,109.36,16.58-189.82c-38.05,15.1-71.67,37.43-97.98,64.75h0Z"/>
  <path class="cls-2" d="M383.96,270.49v200.46c0,.54-.07,1.08-.21,1.6v6.31c0,43.29-35.1,78.39-78.41,78.39h-47.7c-4.38,0-7.92-3.54-7.92-7.92v-31.69c0-4.37,3.54-7.92,7.92-7.92h47.7c17.06,0,30.88-13.82,30.88-30.87v-2.52c-20.3.01-42.47.04-53.28.04-22.27,0-40.07-3.43-53.4-16.62-13.33-13.19-20-31.2-20-54.01v-135.26c0-1.53.59-2.79,1.77-3.8.88-.77,2.02-1.15,3.18-1.15h37.93c1.37,0,2.55.48,3.51,1.45.96.95,1.45,2.11,1.45,3.5v125.35c0,12.63,3.56,22.89,10.72,30.72,7.14,7.84,16.62,8.67,28.45,8.67,9.55,0,29.49-.44,36.82-.59,1.53-.04,2.76-1.29,2.76-2.84v-161.32c0-1.54.59-2.8,1.78-3.82.87-.75,2.01-1.14,3.16-1.14h37.94c1.37,0,2.55.48,3.51,1.45.96.95,1.44,2.11,1.44,3.5v.03Z"/>
  <g>
    <path class="cls-2" d="M680.21,480.54c-.98-.98-1.47-2.16-1.47-3.57v-204.85c0-1.4.49-2.58,1.47-3.57.98-.98,2.16-1.47,3.57-1.47h38.62c1.4,0,2.58.49,3.57,1.47.98.98,1.47,2.17,1.47,3.57v204.85c0,1.4-.49,2.59-1.47,3.57s-2.17,1.47-3.57,1.47h-38.62c-1.4,0-2.59-.49-3.57-1.47Z"/>
    <path class="cls-2" d="M779.19,480.54c-.98-.98-1.47-2.16-1.47-3.57v-35.68c0-2.52.69-4.47,2.1-5.88l103.27-121.32c1.4-1.68.98-2.52-1.26-2.52h-96.97c-1.4,0-2.59-.49-3.57-1.47s-1.47-2.16-1.47-3.57v-34c0-1.4.49-2.58,1.47-3.57.98-.98,2.17-1.47,3.57-1.47h152.8c1.4,0,2.58.49,3.57,1.47.98.98,1.47,2.17,1.47,3.57v35.68c0,2.24-.84,4.2-2.52,5.88l-105.36,121.32c-1.12,1.68-.7,2.52,1.26,2.52h102.85c1.4,0,2.58.49,3.57,1.47.98.98,1.47,2.17,1.47,3.57v34c0,1.4-.49,2.59-1.47,3.57s-2.17,1.47-3.57,1.47h-156.16c-1.4,0-2.59-.49-3.57-1.47h0Z"/>
    <path class="cls-2" d="M1396.27,339.28v137.69c0,1.56-.6,2.84-1.8,3.88-.89.77-2.06,1.17-3.24,1.17h-38.62c-1.4,0-2.59-.49-3.57-1.48-.99-.98-1.48-2.16-1.48-3.56v-127.61c0-12.86-3.63-23.3-10.91-31.27-7.28-7.98-16.93-8.83-28.97-8.83-9.72,0-30.03.43-37.48.6-1.57.04-2.82,1.32-2.82,2.89v164.23c0,1.57-.6,2.85-1.81,3.89-.89.76-2.05,1.16-3.22,1.16h-38.63c-1.4,0-2.59-.49-3.56-1.48-.99-.98-1.46-2.16-1.46-3.56v-204.07c0-1.62.6-3.24,1.84-4.28.9-.75,1.97-1.12,3.19-1.12,0,0,74.58-.12,97.81-.12s40.79,3.48,54.37,16.92c13.57,13.43,20.36,31.76,20.36,54.99v-.04Z"/>
    <path class="cls-2" d="M529.88,312.6c34.18,0,61.98,27.81,61.98,61.98s-27.81,61.98-61.98,61.98-61.98-27.81-61.98-61.98,27.81-61.98,61.98-61.98M529.88,263.81c-61.18,0-110.78,49.6-110.78,110.78s49.6,110.78,110.78,110.78,110.78-49.6,110.78-110.78-49.6-110.78-110.78-110.78h0Z"/>
    <path class="cls-2" d="M1113.95,434.71c-21.19,12.91-55.35,12.5-74.84-3.27-9.79-7.69-16.89-19.2-21.09-31.41l166.31-20.42c2.98-.37,5.11-3.08,4.77-6.06-9.37-81.98-69.79-127.24-151.97-101.86-56.76,18.16-81.36,80.8-64.73,133.95,31.27,95.42,155.49,104.99,203.61,20.15,1.3-2.3.57-5.23-1.66-6.65l-25.78-16.45c-2.42-1.55-5.68-.74-7.03,1.8-6.52,12.26-16.09,23.32-27.58,30.23h-.01ZM1025.81,337.44c10.67-18.74,32.62-26.81,53.76-28.58,28.39-3.41,52.04,11.6,61.97,38.32l-124.87,15.33c1.79-9.02,4.84-17.74,9.15-25.08h-.01Z"/>
  </g>
  <path class="cls-4" d="M1467.53,495.78l63.48-77.59c-72.28-42.81-89.18-93.6-86.15-155.54,2.03-41.62,26.61-80.68,56.82-109.65l82,96.99c-16.42,25.69-26.35,54.87-27.87,86.1-1.67,34.2,6.92,66.93,23.48,96.1l-110.82,64.66c-.69.4-1.43-.46-.92-1.08h-.02Z"/>
  <path class="cls-3" d="M1690.27,375.03l-111,57.17c-16.56-29.17-25.15-61.9-23.48-96.1,1.53-31.23,11.45-60.41,27.87-86.1l106.33,124.52.27.52h.01Z"/>
</svg>
