<?xml version="1.0" encoding="UTF-8"?>
<svg id="Layer_1" data-name="Layer 1" xmlns="http://www.w3.org/2000/svg" viewBox="0 0 500 500">
  <defs>
    <style>
      .cls-1 {
        fill: #fd6421;
      }

      .cls-1, .cls-2, .cls-3, .cls-4 {
        stroke-width: 0px;
      }

      .cls-2 {
        fill: #0068fd;
      }

      .cls-3 {
        fill: #272a35;
      }

      .cls-4 {
        fill: #4d39c3;
      }
    </style>
  </defs>
  <g id="Yoizen_cuadrado" data-name="Yoizen cuadrado">
    <path class="cls-3" d="M116.35,295.09v63.94c0,.17-.02.35-.07.51v2.01c0,13.81-11.2,25-25.01,25h-15.21c-1.4,0-2.53-1.13-2.53-2.53v-10.11c0-1.39,1.13-2.53,2.53-2.53h15.21c5.44,0,9.85-4.41,9.85-9.85v-.8c-6.48,0-13.55.01-17,.01-7.1,0-12.78-1.09-17.03-5.3-4.25-4.21-6.38-9.95-6.38-17.23v-43.14c0-.49.19-.89.56-1.21.28-.24.64-.37,1.01-.37h12.1c.44,0,.81.15,1.12.46.31.3.46.67.46,1.12v39.98c0,4.03,1.14,7.3,3.42,9.8,2.28,2.5,5.3,2.77,9.07,2.77,3.04,0,9.41-.14,11.74-.19.49-.01.88-.41.88-.91v-51.45c0-.49.19-.89.57-1.22.28-.24.64-.36,1.01-.36h12.1c.44,0,.81.15,1.12.46.31.3.46.67.46,1.12Z"/>
    <g>
      <path class="cls-3" d="M116.35,295.14v63.95c0,.17-.02.35-.07.51v2.01c0,13.81-11.2,25.01-25.01,25.01h-15.22c-1.4,0-2.53-1.13-2.53-2.53v-10.11c0-1.39,1.13-2.53,2.53-2.53h15.22c5.44,0,9.85-4.41,9.85-9.85v-.8c-6.48,0-13.55.01-17,.01-7.11,0-12.78-1.1-17.04-5.3-4.25-4.21-6.38-9.95-6.38-17.23v-43.15c0-.49.19-.89.56-1.21.28-.24.64-.37,1.01-.37h12.1c.44,0,.81.15,1.12.46.31.3.46.67.46,1.12v39.99c0,4.03,1.14,7.3,3.42,9.8,2.28,2.5,5.3,2.77,9.08,2.77,3.04,0,9.41-.14,11.75-.19.49-.01.88-.41.88-.91v-51.46c0-.49.19-.89.57-1.22.28-.24.64-.36,1.01-.36h12.1c.44,0,.81.15,1.12.46.31.3.46.67.46,1.12Z"/>
      <g>
        <path class="cls-3" d="M210.86,362.14c-.31-.31-.47-.69-.47-1.14v-65.35c0-.45.15-.82.47-1.14.31-.31.69-.47,1.14-.47h12.32c.45,0,.82.16,1.14.47.31.31.47.69.47,1.14v65.35c0,.45-.16.83-.47,1.14-.31.31-.69.47-1.14.47h-12.32c-.45,0-.83-.15-1.14-.47Z"/>
        <path class="cls-3" d="M242.44,362.14c-.31-.31-.47-.69-.47-1.14v-11.38c0-.8.22-1.43.67-1.87l32.94-38.7c.45-.54.31-.8-.4-.8h-30.93c-.45,0-.83-.15-1.14-.47-.31-.31-.47-.69-.47-1.14v-10.85c0-.45.15-.82.47-1.14.31-.31.69-.47,1.14-.47h48.75c.45,0,.82.16,1.14.47.31.31.47.69.47,1.14v11.38c0,.72-.27,1.34-.8,1.87l-33.61,38.7c-.36.54-.22.8.4.8h32.81c.45,0,.82.16,1.14.47.31.31.47.69.47,1.14v10.85c0,.45-.16.83-.47,1.14-.31.31-.69.47-1.14.47h-49.82c-.45,0-.83-.15-1.14-.47Z"/>
        <path class="cls-3" d="M439.29,317.08v43.92c0,.5-.19.91-.57,1.24-.29.25-.66.37-1.03.37h-12.32c-.45,0-.83-.16-1.14-.47-.32-.31-.47-.69-.47-1.14v-40.71c0-4.1-1.16-7.43-3.48-9.98-2.32-2.55-5.4-2.82-9.24-2.82-3.1,0-9.58.14-11.96.19-.5.01-.9.42-.9.92v52.39c0,.5-.19.91-.58,1.24-.28.24-.65.37-1.03.37h-12.32c-.45,0-.83-.16-1.14-.47-.32-.31-.47-.69-.47-1.14v-65.1c0-.52.19-1.04.59-1.36.29-.24.63-.36,1.02-.36,0,0,23.79-.04,31.2-.04s13.01,1.11,17.34,5.4c4.33,4.29,6.49,10.13,6.49,17.54Z"/>
        <path class="cls-3" d="M162.9,308.57c10.9,0,19.77,8.87,19.77,19.77s-8.87,19.77-19.77,19.77-19.77-8.87-19.77-19.77,8.87-19.77,19.77-19.77M162.9,293c-19.52,0-35.34,15.82-35.34,35.34s15.82,35.34,35.34,35.34,35.34-15.82,35.34-35.34-15.82-35.34-35.34-35.34h0Z"/>
        <path class="cls-3" d="M349.23,347.52c-6.76,4.12-17.66,3.99-23.87-1.04-3.12-2.45-5.39-6.12-6.73-10.02l53.05-6.51c.95-.12,1.63-.98,1.52-1.93-2.99-26.15-22.26-40.59-48.48-32.49-18.11,5.79-25.96,25.77-20.65,42.73,9.98,30.44,49.6,33.49,64.95,6.43.42-.73.18-1.67-.53-2.12l-8.22-5.25c-.77-.49-1.81-.24-2.24.57-2.08,3.91-5.13,7.44-8.8,9.64ZM321.11,316.49c3.4-5.98,10.41-8.55,17.15-9.12,9.06-1.09,16.6,3.7,19.77,12.23l-39.84,4.89c.57-2.88,1.54-5.66,2.92-8Z"/>
      </g>
    </g>
    <path class="cls-1" d="M265.74,143.4s-2.81,3.42-5.91,7.27l43.56,50.58,7.67-87.79c-17.6,6.98-33.15,17.31-45.32,29.95Z"/>
    <path class="cls-2" d="M198.69,271.93l29.36-35.89c-33.43-19.8-41.25-43.29-39.85-71.94.94-19.25,12.31-37.32,26.28-50.72l37.93,44.86c-7.6,11.88-12.19,25.38-12.89,39.82-.77,15.82,3.2,30.96,10.86,44.45l-51.26,29.91c-.32.19-.66-.21-.43-.5Z"/>
    <path class="cls-4" d="M301.72,216.08l-51.34,26.44c-7.66-13.49-11.63-28.63-10.86-44.45.71-14.44,5.3-27.94,12.89-39.82l49.18,57.6.13.24Z"/>
  </g>
</svg>